<?xml version="1.0" encoding="utf-8"?>
<!-- Generator: Adobe Illustrator 12.0.0, SVG Export Plug-In . SVG Version: 6.00 Build 51448)  -->
<!DOCTYPE svg PUBLIC "-//W3C//DTD SVG 1.1//EN" "http://www.w3.org/Graphics/SVG/1.1/DTD/svg11.dtd" [
	<!ENTITY ns_svg "http://www.w3.org/2000/svg">
	<!ENTITY ns_xlink "http://www.w3.org/1999/xlink">
]>
<svg  version="1.1" id="Calque_1" xmlns="&ns_svg;" xmlns:xlink="&ns_xlink;" width="184.252" height="155.906"
	 viewBox="0 0 184.252 155.906" overflow="visible" enable-background="new 0 0 184.252 155.906" xml:space="preserve">
<g>
	<defs>
		<rect id="XMLID_1_" width="184.252" height="155.906"/>
	</defs>
	<clipPath id="XMLID_5_">
		<use xlink:href="#XMLID_1_" />
	</clipPath>
	<g clip-path="url(#XMLID_5_)">
		<defs>
			<rect id="XMLID_3_" width="184.252" height="155.906"/>
		</defs>
		<clipPath id="XMLID_6_">
			<use xlink:href="#XMLID_3_" />
		</clipPath>
		<path clip-path="url(#XMLID_6_)" fill="#005E9E" d="M123.596,117.621c1.229,2.021,2.646,3.283,5.106,3.283
			c2.56,0,4.393-2.109,4.393-4.61c0-5.866-9.881-3.281-9.881-10.413c0-4.067,3.218-6.056,7.005-6.056
			c1.515,0,3.345,0.473,4.515,1.513c-0.38,0.822-0.601,1.707-0.853,2.586h-0.317c-0.661-1.702-2.052-2.745-3.909-2.745
			c-2.182,0-3.981,1.453-3.981,3.696c0,5.801,9.941,3.467,9.941,10.188c0,4.517-3.504,7.199-7.794,7.199
			c-1.547,0-4.07-0.661-5.146-1.83c0.316-0.915,0.478-1.866,0.601-2.812H123.596z"/>
		<path clip-path="url(#XMLID_6_)" fill="#005E9E" d="M111.491,109.699h4.891c0.949,0,1.863-0.127,2.807-0.153
			c-0.027,0.251-0.092,0.535-0.092,0.815c0,0.257,0.064,0.538,0.092,0.889c-0.943-0.037-1.857-0.159-2.807-0.159h-4.891v9.214
			c1.925,0.066,3.822-0.062,5.714-0.126c0.979-0.03,1.925-0.123,2.902-0.284c-0.031,0.349-0.096,0.633-0.096,0.948
			c0,0.312,0.064,0.631,0.096,0.951h-11.393v-21.496h11.2c-0.026,0.348-0.093,0.627-0.093,0.945c0,0.317,0.066,0.633,0.093,0.946
			c-0.941-0.188-1.893-0.28-2.833-0.345l-3.161-0.066h-2.43V109.699z"/>
		<path clip-path="url(#XMLID_6_)" fill="#005E9E" d="M79.146,100.298c0.441,0.032,0.917,0.087,1.392,0.087
			c0.443,0,0.884-0.055,1.392-0.087v21.579c-0.508-0.026-0.949-0.083-1.392-0.083c-0.475,0-0.951,0.057-1.392,0.083V100.298z"/>
		<path clip-path="url(#XMLID_6_)" fill="#005E9E" d="M104.646,121.877h-0.945c-0.348-0.441-0.982-1.196-1.644-1.918l-13.633-15.084
			h-0.313v17.002c-0.323-0.026-0.599-0.083-0.884-0.083c-0.316,0-0.603,0.057-0.884,0.083v-21.579h1.23l14.991,16.255h0.312v-16.255
			c0.284,0.032,0.569,0.087,0.885,0.087c0.279,0,0.568-0.055,0.884-0.087V121.877z"/>
		<path clip-path="url(#XMLID_6_)" fill="#005E9E" d="M73.37,100.298c0.823,7.793,1.707,15.56,2.561,21.579
			c-0.569-0.026-1.009-0.083-1.484-0.083c-0.505,0-1.01,0.057-1.484,0.083c-0.536-6.341-1.168-13.154-1.608-16.279
			c-3.666,6.537-6.375,11.583-8.269,15.938h-0.349l-1.733-3.563c-2.022-4.168-4.231-8.272-6.375-12.374
			c-0.692,6.155-1.547,12.403-1.547,16.279c-0.41-0.026-0.756-0.083-1.104-0.083c-0.411,0-0.762,0.057-1.135,0.083
			c0.817-5.074,2.714-18.263,3.03-21.579h0.82c2.522,5.009,5.552,10.952,8.928,16.538c3-5.401,5.904-10.89,9.087-16.538H73.37z"/>
		<path clip-path="url(#XMLID_6_)" fill="#005E9E" d="M96.777,50.042l28.056-24.414l33.451-16.806l-27.592,23.313
			c0.592,0.967,1.145,1.959,1.642,2.977l47.191-26.605l-44.292,34.415c0.751,3.003,1.15,6.131,1.15,9.352
			c0,22.16-18.908,40.121-42.234,40.121c-7.507,0-14.557-1.857-20.663-5.121l49.285-26.771L87.094,87.683
			c2.279,0.456,4.64,0.702,7.055,0.702c19.747,0,35.747-16.168,35.747-36.11c0-6.356-1.622-12.326-4.476-17.514L96.777,50.042z"/>
		<path clip-path="url(#XMLID_6_)" fill="#005E9E" d="M62.665,69.397c-2.725-5.097-4.266-10.928-4.266-17.123
			c0-19.945,16.004-36.115,35.75-36.115c2.155,0,4.269,0.191,6.319,0.562l0.275,0.346L65.233,43.382l49.597-26.116
			c-6.046-3.16-13.3-5.121-20.681-5.121c-23.326,0-42.236,17.969-42.236,40.129c0,3.158,0.383,6.231,1.109,9.182L8.642,95.692
			L55.763,69.04c0.58,1.193,1.216,2.355,1.912,3.478L28.3,96.168l34.875-17.28L91.23,53.686L62.665,69.397"/>
		<polygon clip-path="url(#XMLID_6_)" fill="#005E9E" points="48.907,96.489 64.442,80.476 107.562,56.698 71.889,85.704 		"/>
		<polygon clip-path="url(#XMLID_6_)" fill="#005E9E" points="81.403,46.868 116.432,18.653 138.784,8.507 123.728,23.885 		"/>
		<path clip-path="url(#XMLID_6_)" fill="#808080" d="M31.629,128.576c1.133-0.061,3.821-0.094,5.448,0.033
			c2.986,0.219,4.273,1.918,4.273,4.057c0,2.795-2.195,4.785-5.976,5.096c-1.285,0.096-2.801,0.096-3.745,0V128.576z M31.629,139
			c0.944,0,3.405,0.215,5.106-0.065c5.33-0.89,8.08-2.621,8.08-6.427c0-3.805-2.41-5.162-9.744-5.162h-6.75v21.53
			c0.525-0.033,1.09-0.079,1.653-0.079c0.528,0,1.052,0.046,1.655,0.079V139z"/>
		<path clip-path="url(#XMLID_6_)" fill="#808080" d="M54.387,141.777c0,0.877,0.041,1.424-0.081,2.303
			c-0.284,1.969-1.832,4.137-4.395,4.277c-2.157,0.135-3.174-1.561-3.01-3.123c0.365-3.492,1.709-3.05,5.857-4.338l1.629-0.51
			V141.777z M54.387,139.643l-0.609,0.236c-1.383,0.543-1.343,0.475-3.867,1.018c-2.969,0.645-6.021,1.016-6.183,4.406
			c-0.084,2.139,2.155,3.768,4.677,3.902c2.482,0.135,4.965-0.954,5.78-3.018v2.609h4.964v-0.58H57.44v-9.459
			c0-2.508-0.447-4.846-5.818-5.084c-1.467-0.07-1.245,0.064-2.303,0.198c-1.223,0.171-2.361,0.55-3.172,0.854v4.541h0.728
			l0.897-1.898c0.773-1.629,0.879-3.391,3.523-3.152c2.645,0.234,3.092,1.692,3.092,3.251V139.643z"/>
		<path clip-path="url(#XMLID_6_)" fill="#808080" d="M69.325,148.797h-7.367v-0.58h1.832v-13.562h-1.915v-0.612h4.761v3.088
			c0.204-1.115,1.913-3.188,4.599-3.188c0.773,0,1.465,0.174,2.239,0.508v5.357H72.7l-0.979-2.475
			c-0.691-1.732-1.221-2.848-2.279-2.342c-2.761,1.324-2.519,4.509-2.519,7.494v5.73h2.402V148.797z"/>
		<path clip-path="url(#XMLID_6_)" fill="#808080" d="M75.231,148.797v-0.58h1.873v-13.562h-1.75v-0.612h4.922v14.174h1.67v0.58
			H75.231z M80.358,130.621c0,0.949-0.933,1.629-1.992,1.629c-1.019,0-1.957-0.746-1.957-1.596c0-0.845,0.897-1.662,1.914-1.662
			C79.425,128.992,80.358,129.736,80.358,130.621"/>
		<path clip-path="url(#XMLID_6_)" fill="#808080" d="M94.673,137.504c-0.771-2.307-1.548-3.221-3.658-3.221
			c-1.834,0-4.154,0.609-4.317,2.477c-0.12,1.664,1.954,2.34,3.825,2.848c3.175,0.914,6.878,1.864,6.75,4.816
			c-0.081,2.812-2.884,4.881-6.709,4.812c-2.196-0.031-4.677-0.744-5.533-1.254v-4.848h0.734l0.854,2.439
			c0.938,2.748,1.992,2.783,3.662,2.918c2.318,0.203,4.963-0.746,5.164-2.646c0.287-2.341-3.456-2.95-5.817-3.662
			c-1.666-0.513-4.921-1.423-4.921-4.204c0-3.254,4.23-4.342,6.468-4.342c1.874,0,4.025,0.608,4.8,1.017v4.444h-0.774
			L94.673,137.504z"/>
		<path clip-path="url(#XMLID_6_)" fill="#1A171B" d="M105.412,148.938c-0.603-0.032-1.125-0.047-1.647-0.047
			c-0.566,0-1.136,0.015-1.657,0.047V128.84c-3.816,0-6.125,0.188-8.272,0.378c0.038-0.313,0.134-0.63,0.134-0.94
			s-0.096-0.589-0.134-0.932h19.479c-0.038,0.343-0.091,0.621-0.091,0.932s0.053,0.627,0.091,0.94
			c-1.891-0.19-4.538-0.378-7.902-0.378V148.938z"/>
		<path clip-path="url(#XMLID_6_)" fill="none" stroke="#1A171B" stroke-width="0.128" d="M105.412,148.938
			c-0.603-0.032-1.125-0.047-1.647-0.047c-0.566,0-1.136,0.015-1.657,0.047V128.84c-3.816,0-6.125,0.188-8.272,0.378
			c0.038-0.313,0.134-0.63,0.134-0.94s-0.096-0.589-0.134-0.932h19.479c-0.038,0.343-0.091,0.621-0.091,0.932
			s0.053,0.627,0.091,0.94c-1.891-0.19-4.538-0.378-7.902-0.378V148.938z"/>
		<path clip-path="url(#XMLID_6_)" fill="#1A171B" d="M113.773,137.468c0.287-1.622,1.588-3.185,3.375-3.251
			c2.157-0.1,2.977,1.799,3.017,3.492l0.037,1.594h-6.753L113.773,137.468z M123.662,143.305h-0.772l-0.04,0.406
			c-0.201,2.031-1.875,4.948-5.047,4.781c-3.578-0.17-4.354-3.289-4.354-6.82v-1.725h10.174c0.363-3.121-2.244-6.41-6.31-6.375
			c-4.19,0.066-7.037,3.559-7.283,7.695c-0.243,4.512,3.132,8.004,7.529,7.938c3.455-0.07,5.815-2.612,6.063-5.43L123.662,143.305z"
			/>
		<path clip-path="url(#XMLID_6_)" fill="none" stroke="#1A171B" stroke-width="0.128" d="M113.773,137.468
			c0.287-1.622,1.588-3.185,3.375-3.251c2.157-0.1,2.977,1.799,3.017,3.492l0.037,1.594h-6.753L113.773,137.468z M123.662,143.305
			h-0.772l-0.04,0.406c-0.201,2.031-1.875,4.948-5.047,4.781c-3.578-0.17-4.354-3.289-4.354-6.82v-1.725h10.174
			c0.363-3.121-2.244-6.41-6.31-6.375c-4.19,0.066-7.037,3.559-7.283,7.695c-0.243,4.512,3.132,8.004,7.529,7.938
			c3.455-0.07,5.815-2.612,6.063-5.43L123.662,143.305z"/>
		<path clip-path="url(#XMLID_6_)" fill="#1A171B" d="M138.252,139.607l-0.403-1.223c-0.896-2.947-1.955-4.268-3.825-4.307
			c-3.949-0.064-4.6,4.206-4.517,7.428c0.082,2.984,0.408,6.816,4.558,6.852c2.443,0.029,3.95-1.9,4.352-3.973l0.211-1.08h0.727
			l-0.117,0.746c-0.609,3.896-3.176,5.119-6.022,5.084c-4.6-0.035-7.206-4.035-7.206-7.832c0-3.969,3.053-7.664,7.812-7.835
			c1.222-0.03,3.333,0.069,5.207,0.983v5.156H138.252z"/>
		<path clip-path="url(#XMLID_6_)" fill="none" stroke="#1A171B" stroke-width="0.128" d="M138.252,139.607l-0.403-1.223
			c-0.896-2.947-1.955-4.268-3.825-4.307c-3.949-0.064-4.6,4.206-4.517,7.428c0.082,2.984,0.408,6.816,4.558,6.852
			c2.443,0.029,3.95-1.9,4.352-3.973l0.211-1.08h0.727l-0.117,0.746c-0.609,3.896-3.176,5.119-6.022,5.084
			c-4.6-0.035-7.206-4.035-7.206-7.832c0-3.969,3.053-7.664,7.812-7.835c1.222-0.03,3.333,0.069,5.207,0.983v5.156H138.252z"/>
		<path clip-path="url(#XMLID_6_)" fill="#1A171B" d="M150.902,148.797v-0.58h2.162v-9.729c0-1.932,0.035-3.866-2.325-3.797
			c-3.415,0.1-3.862,4.102-3.862,7.086v6.439h2.317v0.58h-7.12v-0.58h1.716v-18.814h-1.833v-0.611h4.92v7.695
			c0.488-1.289,2.562-2.848,4.76-2.678c3.299,0.234,4.437,1.389,4.437,4.512v9.896h1.791v0.58H150.902z"/>
		<path clip-path="url(#XMLID_6_)" fill="none" stroke="#1A171B" stroke-width="0.128" d="M150.902,148.797v-0.58h2.162v-9.729
			c0-1.932,0.035-3.866-2.325-3.797c-3.415,0.1-3.862,4.102-3.862,7.086v6.439h2.317v0.58h-7.12v-0.58h1.716v-18.814h-1.833v-0.611
			h4.92v7.695c0.488-1.289,2.562-2.848,4.76-2.678c3.299,0.234,4.437,1.389,4.437,4.512v9.896h1.791v0.58H150.902z"/>
	</g>
</g>
</svg>
