<?xml version="1.0"?>
<svg xmlns="http://www.w3.org/2000/svg" width="722.70" height="578.16" viewBox="0,0,722.70,578.16">
<desc>R SVG Plot!</desc>
<rect width="100%" height="100%" style="fill:#FFFFFF"/>
<polyline points="59.02 , 59.06 64.49 , 49.58 53.55 , 49.58 59.02 , 59.06 " style="stroke-width:1;stroke:#FFFFFF;fill:#000000;stroke-opacity:1.000000;fill-opacity:0.000000"/>
<polyline points="115.50 , 59.06 120.98 , 49.58 110.03 , 49.58 115.50 , 59.06 " style="stroke-width:1;stroke:#FFFFFF;fill:#000000;stroke-opacity:1.000000;fill-opacity:0.000000"/>
<polyline points="680.35 , 481.19 685.82 , 471.71 674.88 , 471.71 680.35 , 481.19 " style="stroke-width:1;stroke:#FFFFFF;fill:#000000;stroke-opacity:1.000000;fill-opacity:0.000000"/>
<polyline points="143.75 , 481.19 149.22 , 471.71 138.27 , 471.71 143.75 , 481.19 " style="stroke-width:1;stroke:#FFFFFF;fill:#000000;stroke-opacity:1.000000;fill-opacity:0.000000"/>
<polyline points="171.99 , 481.19 177.46 , 471.71 166.52 , 471.71 171.99 , 481.19 " style="stroke-width:1;stroke:#FFFFFF;fill:#000000;stroke-opacity:1.000000;fill-opacity:0.000000"/>
<polyline points="171.99 , 523.40 177.46 , 513.93 166.52 , 513.93 171.99 , 523.40 " style="stroke-width:1;stroke:#FFFFFF;fill:#000000;stroke-opacity:1.000000;fill-opacity:0.000000"/>
<polyline points="115.50 , 481.19 120.98 , 471.71 110.03 , 471.71 115.50 , 481.19 " style="stroke-width:1;stroke:#FFFFFF;fill:#000000;stroke-opacity:1.000000;fill-opacity:0.000000"/>
<line x1="59.02" y1="535.66" x2="623.86" y2="535.66" style="stroke-width:1;stroke:#000000;fill:#000000;stroke-opacity:1.000000;fill-opacity:0.000000"/>
<line x1="59.02" y1="535.66" x2="59.02" y2="539.83" style="stroke-width:1;stroke:#000000;fill:#000000;stroke-opacity:1.000000;fill-opacity:0.000000"/>
<line x1="171.99" y1="535.66" x2="171.99" y2="539.83" style="stroke-width:1;stroke:#000000;fill:#000000;stroke-opacity:1.000000;fill-opacity:0.000000"/>
<line x1="284.96" y1="535.66" x2="284.96" y2="539.83" style="stroke-width:1;stroke:#000000;fill:#000000;stroke-opacity:1.000000;fill-opacity:0.000000"/>
<line x1="397.93" y1="535.66" x2="397.93" y2="539.83" style="stroke-width:1;stroke:#000000;fill:#000000;stroke-opacity:1.000000;fill-opacity:0.000000"/>
<line x1="510.89" y1="535.66" x2="510.89" y2="539.83" style="stroke-width:1;stroke:#000000;fill:#000000;stroke-opacity:1.000000;fill-opacity:0.000000"/>
<line x1="623.86" y1="535.66" x2="623.86" y2="539.83" style="stroke-width:1;stroke:#000000;fill:#000000;stroke-opacity:1.000000;fill-opacity:0.000000"/>
<text transform="translate(56.52,552.33) "  style="font-size:10" >0</text>
<text transform="translate(169.24,552.33) "  style="font-size:10" >2</text>
<text transform="translate(282.21,552.33) "  style="font-size:10" >4</text>
<text transform="translate(395.18,552.33) "  style="font-size:10" >6</text>
<text transform="translate(508.14,552.33) "  style="font-size:10" >8</text>
<text transform="translate(618.36,552.33) "  style="font-size:10" >10</text>
<line x1="34.17" y1="474.87" x2="34.17" y2="52.74" style="stroke-width:1;stroke:#000000;fill:#000000;stroke-opacity:1.000000;fill-opacity:0.000000"/>
<line x1="34.17" y1="474.87" x2="30.00" y2="474.87" style="stroke-width:1;stroke:#000000;fill:#000000;stroke-opacity:1.000000;fill-opacity:0.000000"/>
<line x1="34.17" y1="390.45" x2="30.00" y2="390.45" style="stroke-width:1;stroke:#000000;fill:#000000;stroke-opacity:1.000000;fill-opacity:0.000000"/>
<line x1="34.17" y1="306.02" x2="30.00" y2="306.02" style="stroke-width:1;stroke:#000000;fill:#000000;stroke-opacity:1.000000;fill-opacity:0.000000"/>
<line x1="34.17" y1="221.59" x2="30.00" y2="221.59" style="stroke-width:1;stroke:#000000;fill:#000000;stroke-opacity:1.000000;fill-opacity:0.000000"/>
<line x1="34.17" y1="137.17" x2="30.00" y2="137.17" style="stroke-width:1;stroke:#000000;fill:#000000;stroke-opacity:1.000000;fill-opacity:0.000000"/>
<line x1="34.17" y1="52.74" x2="30.00" y2="52.74" style="stroke-width:1;stroke:#000000;fill:#000000;stroke-opacity:1.000000;fill-opacity:0.000000"/>
<text transform="translate(25.83,477.62)  rotate(-90)"  style="font-size:10" >0</text>
<text transform="translate(25.83,393.20)  rotate(-90)"  style="font-size:10" >2</text>
<text transform="translate(25.83,308.77)  rotate(-90)"  style="font-size:10" >4</text>
<text transform="translate(25.83,224.34)  rotate(-90)"  style="font-size:10" >6</text>
<text transform="translate(25.83,139.92)  rotate(-90)"  style="font-size:10" >8</text>
<text transform="translate(25.83,58.24)  rotate(-90)"  style="font-size:10" >10</text>
<polyline points="34.17 , 535.66 705.20 , 535.66 705.20 , 34.17 34.17 , 34.17 34.17 , 535.66 " style="stroke-width:1;stroke:#000000;fill:#000000;stroke-opacity:1.000000;fill-opacity:0.000000"/>
<text transform="translate(367.18,568.99) "  style="font-size:10" >x</text>
<text transform="translate(9.17,287.41)  rotate(-90)"  style="font-size:10" >y</text>
<circle cx="59.02" cy="52.74" r="6.09" style="stroke-width:1;stroke:#0000FF;fill:#FFFFFF;stroke-opacity:1.000000;fill-opacity:0.000000" />
<circle cx="115.50" cy="52.74" r="6.09" style="stroke-width:1;stroke:#0000FF;fill:#FFFFFF;stroke-opacity:1.000000;fill-opacity:0.000000" />
<polyline points="680.35 , 479.96 685.44 , 474.87 680.35 , 469.78 675.26 , 474.87 680.35 , 479.96 " style="stroke-width:1;stroke:#FF0000;fill:#000000;stroke-opacity:1.000000;fill-opacity:0.000000"/>
<polyline points="143.75 , 479.96 148.84 , 474.87 143.75 , 469.78 138.65 , 474.87 143.75 , 479.96 " style="stroke-width:1;stroke:#FF0000;fill:#000000;stroke-opacity:1.000000;fill-opacity:0.000000"/>
<polyline points="171.99 , 479.96 177.08 , 474.87 171.99 , 469.78 166.90 , 474.87 171.99 , 479.96 " style="stroke-width:1;stroke:#FF0000;fill:#000000;stroke-opacity:1.000000;fill-opacity:0.000000"/>
<polyline points="171.99 , 522.18 177.08 , 517.09 171.99 , 511.99 166.90 , 517.09 171.99 , 522.18 " style="stroke-width:1;stroke:#FF0000;fill:#000000;stroke-opacity:1.000000;fill-opacity:0.000000"/>
<polyline points="115.50 , 479.96 120.60 , 474.87 115.50 , 469.78 110.41 , 474.87 115.50 , 479.96 " style="stroke-width:1;stroke:#FF0000;fill:#000000;stroke-opacity:1.000000;fill-opacity:0.000000"/>
<polyline points="87.26 , 59.06 92.73 , 49.58 81.79 , 49.58 87.26 , 59.06 " style="stroke-width:1;stroke:#A020F0;fill:#000000;stroke-opacity:1.000000;fill-opacity:0.000000"/>
<polyline points="115.50 , 270.12 120.98 , 260.65 110.03 , 260.65 115.50 , 270.12 " style="stroke-width:1;stroke:#A020F0;fill:#000000;stroke-opacity:1.000000;fill-opacity:0.000000"/>
<polyline points="256.71 , 489.63 262.19 , 480.16 251.24 , 480.16 256.71 , 489.63 " style="stroke-width:1;stroke:#A020F0;fill:#000000;stroke-opacity:1.000000;fill-opacity:0.000000"/>
<polyline points="34.17 , 535.66 705.20 , 535.66 705.20 , 34.17 34.17 , 34.17 34.17 , 535.66 " style="stroke-width:1;stroke:#000000;fill:#000000;stroke-opacity:1.000000;fill-opacity:0.000000"/>
</svg>
