<?xml version="1.0"?>
<svg xmlns="http://www.w3.org/2000/svg" width="722.70" height="578.16" viewBox="0,0,722.70,578.16">
<desc>R SVG Plot!</desc>
<rect width="100%" height="100%" style="fill:#FFFFFF"/>
<circle cx="59.02" cy="52.74" r="4.06" style="stroke-width:1;stroke:#0000FF;fill:#0000FF;stroke-opacity:1.000000;fill-opacity:1.000000" />
<circle cx="115.50" cy="52.74" r="4.06" style="stroke-width:1;stroke:#0000FF;fill:#0000FF;stroke-opacity:1.000000;fill-opacity:1.000000" />
<circle cx="680.35" cy="474.87" r="4.06" style="stroke-width:1;stroke:#0000FF;fill:#0000FF;stroke-opacity:1.000000;fill-opacity:1.000000" />
<circle cx="143.75" cy="474.87" r="4.06" style="stroke-width:1;stroke:#0000FF;fill:#0000FF;stroke-opacity:1.000000;fill-opacity:1.000000" />
<circle cx="171.99" cy="474.87" r="4.06" style="stroke-width:1;stroke:#0000FF;fill:#0000FF;stroke-opacity:1.000000;fill-opacity:1.000000" />
<circle cx="171.99" cy="517.09" r="4.06" style="stroke-width:1;stroke:#0000FF;fill:#0000FF;stroke-opacity:1.000000;fill-opacity:1.000000" />
<circle cx="115.50" cy="474.87" r="4.06" style="stroke-width:1;stroke:#0000FF;fill:#0000FF;stroke-opacity:1.000000;fill-opacity:1.000000" />
<line x1="59.02" y1="535.66" x2="623.86" y2="535.66" style="stroke-width:1;stroke:#000000;fill:#000000;stroke-opacity:1.000000;fill-opacity:0.000000"/>
<line x1="59.02" y1="535.66" x2="59.02" y2="539.83" style="stroke-width:1;stroke:#000000;fill:#000000;stroke-opacity:1.000000;fill-opacity:0.000000"/>
<line x1="171.99" y1="535.66" x2="171.99" y2="539.83" style="stroke-width:1;stroke:#000000;fill:#000000;stroke-opacity:1.000000;fill-opacity:0.000000"/>
<line x1="284.96" y1="535.66" x2="284.96" y2="539.83" style="stroke-width:1;stroke:#000000;fill:#000000;stroke-opacity:1.000000;fill-opacity:0.000000"/>
<line x1="397.93" y1="535.66" x2="397.93" y2="539.83" style="stroke-width:1;stroke:#000000;fill:#000000;stroke-opacity:1.000000;fill-opacity:0.000000"/>
<line x1="510.89" y1="535.66" x2="510.89" y2="539.83" style="stroke-width:1;stroke:#000000;fill:#000000;stroke-opacity:1.000000;fill-opacity:0.000000"/>
<line x1="623.86" y1="535.66" x2="623.86" y2="539.83" style="stroke-width:1;stroke:#000000;fill:#000000;stroke-opacity:1.000000;fill-opacity:0.000000"/>
<text transform="translate(56.52,552.33) "  style="font-size:10" >0</text>
<text transform="translate(169.24,552.33) "  style="font-size:10" >2</text>
<text transform="translate(282.21,552.33) "  style="font-size:10" >4</text>
<text transform="translate(395.18,552.33) "  style="font-size:10" >6</text>
<text transform="translate(508.14,552.33) "  style="font-size:10" >8</text>
<text transform="translate(618.36,552.33) "  style="font-size:10" >10</text>
<line x1="34.17" y1="474.87" x2="34.17" y2="52.74" style="stroke-width:1;stroke:#000000;fill:#000000;stroke-opacity:1.000000;fill-opacity:0.000000"/>
<line x1="34.17" y1="474.87" x2="30.00" y2="474.87" style="stroke-width:1;stroke:#000000;fill:#000000;stroke-opacity:1.000000;fill-opacity:0.000000"/>
<line x1="34.17" y1="390.45" x2="30.00" y2="390.45" style="stroke-width:1;stroke:#000000;fill:#000000;stroke-opacity:1.000000;fill-opacity:0.000000"/>
<line x1="34.17" y1="306.02" x2="30.00" y2="306.02" style="stroke-width:1;stroke:#000000;fill:#000000;stroke-opacity:1.000000;fill-opacity:0.000000"/>
<line x1="34.17" y1="221.59" x2="30.00" y2="221.59" style="stroke-width:1;stroke:#000000;fill:#000000;stroke-opacity:1.000000;fill-opacity:0.000000"/>
<line x1="34.17" y1="137.17" x2="30.00" y2="137.17" style="stroke-width:1;stroke:#000000;fill:#000000;stroke-opacity:1.000000;fill-opacity:0.000000"/>
<line x1="34.17" y1="52.74" x2="30.00" y2="52.74" style="stroke-width:1;stroke:#000000;fill:#000000;stroke-opacity:1.000000;fill-opacity:0.000000"/>
<text transform="translate(25.83,477.62)  rotate(-90)"  style="font-size:10" >0</text>
<text transform="translate(25.83,393.20)  rotate(-90)"  style="font-size:10" >2</text>
<text transform="translate(25.83,308.77)  rotate(-90)"  style="font-size:10" >4</text>
<text transform="translate(25.83,224.34)  rotate(-90)"  style="font-size:10" >6</text>
<text transform="translate(25.83,139.92)  rotate(-90)"  style="font-size:10" >8</text>
<text transform="translate(25.83,58.24)  rotate(-90)"  style="font-size:10" >10</text>
<polyline points="34.17 , 535.66 705.20 , 535.66 705.20 , 34.17 34.17 , 34.17 34.17 , 535.66 " style="stroke-width:1;stroke:#000000;fill:#000000;stroke-opacity:1.000000;fill-opacity:0.000000"/>
<text transform="translate(367.18,568.99) "  style="font-size:10" >x</text>
<text transform="translate(9.17,287.41)  rotate(-90)"  style="font-size:10" >y</text>
<line x1="53.27" y1="52.74" x2="64.76" y2="52.74" style="stroke-width:1;stroke:#FF0000;fill:#000000;stroke-opacity:1.000000;fill-opacity:0.000000"/>
<line x1="59.02" y1="58.49" x2="59.02" y2="47.00" style="stroke-width:1;stroke:#FF0000;fill:#000000;stroke-opacity:1.000000;fill-opacity:0.000000"/>
<polyline points="53.27 , 52.74 59.02 , 47.00 64.76 , 52.74 59.02 , 58.49 53.27 , 52.74 " style="stroke-width:1;stroke:#FF0000;fill:#000000;stroke-opacity:1.000000;fill-opacity:0.000000"/>
<line x1="109.76" y1="52.74" x2="121.25" y2="52.74" style="stroke-width:1;stroke:#FF0000;fill:#000000;stroke-opacity:1.000000;fill-opacity:0.000000"/>
<line x1="115.50" y1="58.49" x2="115.50" y2="47.00" style="stroke-width:1;stroke:#FF0000;fill:#000000;stroke-opacity:1.000000;fill-opacity:0.000000"/>
<polyline points="109.76 , 52.74 115.50 , 47.00 121.25 , 52.74 115.50 , 58.49 109.76 , 52.74 " style="stroke-width:1;stroke:#FF0000;fill:#000000;stroke-opacity:1.000000;fill-opacity:0.000000"/>
<line x1="674.60" y1="474.87" x2="686.09" y2="474.87" style="stroke-width:1;stroke:#FF0000;fill:#000000;stroke-opacity:1.000000;fill-opacity:0.000000"/>
<line x1="680.35" y1="480.62" x2="680.35" y2="469.13" style="stroke-width:1;stroke:#FF0000;fill:#000000;stroke-opacity:1.000000;fill-opacity:0.000000"/>
<polyline points="674.60 , 474.87 680.35 , 469.13 686.09 , 474.87 680.35 , 480.62 674.60 , 474.87 " style="stroke-width:1;stroke:#FF0000;fill:#000000;stroke-opacity:1.000000;fill-opacity:0.000000"/>
</svg>
